<?xml version="1.0" encoding="UTF-8" standalone="no"?>
<!-- Created with Inkscape (http://www.inkscape.org/) -->

<svg
   width="210mm"
   height="297mm"
   viewBox="0 0 210 297"
   version="1.1"
   id="svg5"
   inkscape:version="1.2 (dc2aedaf03, 2022-05-15)"
   sodipodi:docname="important.svg"
   xmlns:inkscape="http://www.inkscape.org/namespaces/inkscape"
   xmlns:sodipodi="http://sodipodi.sourceforge.net/DTD/sodipodi-0.dtd"
   xmlns="http://www.w3.org/2000/svg"
   xmlns:svg="http://www.w3.org/2000/svg">
  <sodipodi:namedview
     id="namedview7"
     pagecolor="#ffffff"
     bordercolor="#111111"
     borderopacity="1"
     inkscape:showpageshadow="0"
     inkscape:pageopacity="0"
     inkscape:pagecheckerboard="1"
     inkscape:deskcolor="#d1d1d1"
     inkscape:document-units="mm"
     showgrid="false"
     inkscape:zoom="0.77593294"
     inkscape:cx="288.04036"
     inkscape:cy="440.75974"
     inkscape:window-width="1904"
     inkscape:window-height="1037"
     inkscape:window-x="6"
     inkscape:window-y="33"
     inkscape:window-maximized="1"
     inkscape:current-layer="layer1" />
  <defs
     id="defs2" />
  <g
     inkscape:label="Layer 1"
     inkscape:groupmode="layer"
     id="layer1">
    <path
       id="rect560-6"
       style="fill:#4d2875;fill-opacity:1;stroke-width:0.264583"
       sodipodi:type="inkscape:offset"
       inkscape:radius="4.5856938"
       inkscape:original="M 95.783203 17.994141 C 91.632033 17.956103 87.513495 18.29721 83.962891 19.130859 C 80.412286 19.964509 77.161905 21.006215 75.25 24.197266 C 74.455762 25.522883 74.365836 26.50739 74.203125 27.746094 C 74.040414 28.984798 73.957802 30.406775 73.923828 32.054688 C 73.855881 35.350512 73.992128 39.530646 74.275391 44.347656 C 74.841917 53.981677 76.004272 66.136324 77.388672 78.208984 C 78.773072 90.281645 80.378453 102.25776 81.841797 111.51367 C 82.573469 116.14163 83.267264 120.08304 83.892578 123.0625 C 84.205235 124.55223 84.499341 125.79674 84.792969 126.82031 C 85.086596 127.84389 85.04967 128.42108 86.076172 129.73633 C 88.554286 132.91153 92.40692 133.90783 96.027344 133.89258 C 99.647768 133.87733 103.43567 132.86312 105.96875 129.82227 C 107.15156 128.40236 107.00652 127.90797 107.29883 126.9043 C 107.59114 125.90062 107.88619 124.67204 108.20508 123.19336 C 108.84285 120.236 109.56262 116.29813 110.32812 111.66211 C 111.85914 102.39007 113.56283 90.351842 115.01953 78.214844 C 116.47623 66.077845 117.68668 53.858838 118.22266 44.191406 C 118.49064 39.35769 118.59302 35.172611 118.45898 31.863281 C 118.39197 30.208616 118.27024 28.777476 118.04492 27.511719 C 117.8196 26.245962 117.6778 25.156058 116.59375 23.804688 C 114.4046 21.075691 111.28358 20.128796 107.6875 19.291016 C 104.09142 18.453235 99.934375 18.032178 95.783203 17.994141 z "
       d="m 95.826172,13.408203 c -4.430136,-0.04059 -8.864283,0.30742 -12.91211,1.257813 -3.771889,0.885605 -8.734203,2.394603 -11.597656,7.173828 -1.230278,2.053386 -1.509893,4.164653 -1.660156,5.308594 -0.195627,1.48929 -0.280395,3.065777 -0.316406,4.8125 -0.0722,3.502008 0.07009,7.770063 0.357422,12.65625 0.574835,9.775324 1.743775,21.983149 3.134765,34.113281 1.391008,12.130282 3.002632,24.152421 4.480469,33.500001 0.738784,4.67294 1.439553,8.66566 2.091797,11.77344 0.325945,1.55304 0.638975,2.88965 0.980469,4.08007 0.139536,0.48643 0.616498,2.60434 2.076172,4.47461 3.610163,4.6257 9.110545,5.93878 13.585937,5.91993 4.463335,-0.0188 9.794255,-1.33778 13.445315,-5.72071 1.63584,-1.96375 2.14359,-4.34579 2.20898,-4.57031 0.34158,-1.17286 0.65491,-2.49054 0.98633,-4.02734 0.66473,-3.08236 1.39324,-7.06994 2.16602,-11.75 1.54587,-9.36201 3.25439,-21.447628 4.71875,-33.648441 1.46427,-12.200136 2.68323,-24.481196 3.22851,-34.316407 0.27251,-4.915331 0.38442,-9.207694 0.24024,-12.767578 -0.0718,-1.7722 -0.20057,-3.396379 -0.48047,-4.96875 -0.2039,-1.145407 -0.67566,-3.635574 -2.39063,-5.773437 -3.19633,-3.98455 -7.67272,-5.233336 -11.4414,-6.111328 -4.02598,-0.937935 -8.46918,-1.375395 -12.902348,-1.416016 z"
       transform="translate(-24.356517,6.4645263)" />
    <path
       id="path453-7"
       style="fill:#4d2875;fill-opacity:1;stroke-width:0.264583"
       sodipodi:type="inkscape:offset"
       inkscape:radius="6.9391685"
       inkscape:original="M 90.931641 143.73242 A 17.332445 17.332445 0 0 0 73.599609 161.06445 A 17.332445 17.332445 0 0 0 90.931641 178.39648 A 17.332445 17.332445 0 0 0 108.26367 161.06445 A 17.332445 17.332445 0 0 0 90.931641 143.73242 z "
       d="m 90.931641,136.79297 c -6.354101,1.5e-4 -12.669082,2.61635 -17.16211,7.10937 -4.493027,4.49303 -7.109223,10.80801 -7.109375,17.16211 1.52e-4,6.3541 2.616348,12.66909 7.109375,17.16211 4.493028,4.49303 10.808009,7.10923 17.16211,7.10938 6.354099,-1.6e-4 12.669079,-2.61635 17.162109,-7.10938 4.49303,-4.49302 7.10922,-10.80801 7.10937,-17.16211 -1.5e-4,-6.3541 -2.61634,-12.66908 -7.10937,-17.16211 -4.49303,-4.49302 -10.80801,-7.10922 -17.162109,-7.10937 z"
       transform="matrix(0.92294492,0,0,0.92294492,-11.151019,25.408136)" />
    <path
       id="path453"
       style="fill:#ffffff;fill-opacity:1;stroke-width:0.244196"
       d="M 72.773878,158.06502 A 15.996892,15.996892 0 0 0 56.777142,174.06175 15.996892,15.996892 0 0 0 72.773878,190.05849 15.996892,15.996892 0 0 0 88.770613,174.06175 15.996892,15.996892 0 0 0 72.773878,158.06502 Z" />
    <path
       id="rect560"
       style="fill:#ffffff;fill-opacity:1;stroke-width:0.264583"
       d="m 53.901426,32.463675 c 3.767315,-6.28781 31.017751,-5.711916 35.599758,0 4.985818,6.215304 -7.643046,98.049985 -10.583333,101.579675 -3.079253,3.69651 -11.473072,3.79266 -14.433092,0 C 61.368796,130.05088 49.88053,39.174723 53.901426,32.463675 Z"
       sodipodi:nodetypes="sssss" />
  </g>
</svg>
